<svg width="181" height="181" viewBox="0 0 181 181" fill="none" xmlns="http://www.w3.org/2000/svg">
<g clip-path="url(#clip0_254_4203)">
<path fill-rule="evenodd" clip-rule="evenodd" d="M98.9156 66.3461C100.748 62.1544 101 57.4721 99.0267 52.4131C92.9224 36.7634 79.7775 31.3662 64.7919 31.7927C42.9104 32.4163 17.0719 45.6421 4.60763 56.5341C4.01669 57.0493 3.9585 57.9456 4.47338 58.5329C4.98856 59.1239 5.88506 59.1855 6.47599 58.6703C18.5729 48.0978 43.6383 35.2344 64.8745 34.6277C78.6343 34.2365 90.7779 39.0709 96.3826 53.4455C98.0537 57.7225 97.8279 61.6732 96.2878 65.2213C93.9536 64.2505 91.6227 63.3584 89.2989 62.5483C82.8838 60.3139 65.3837 57.6655 52.9173 60.3151C43.9751 62.2181 37.6275 66.837 38.6337 75.6312C39.1941 80.5192 42.5564 83.7966 47.6027 85.5399C54.539 87.9408 64.7952 87.3816 74.4105 84.4244C82.4164 81.9637 89.9655 77.8543 94.8075 72.537C95.8693 71.3662 96.8079 70.1414 97.5942 68.8618C129.712 82.9408 161.097 111.568 175.981 142.482C176.323 143.185 177.168 143.485 177.875 143.143C178.582 142.804 178.878 141.956 178.54 141.252C163.41 109.835 131.563 80.7274 98.9156 66.3461ZM94.9407 67.732C92.745 66.8245 90.552 65.9887 88.3655 65.2278C82.2174 63.0885 65.4528 60.5518 53.5086 63.091C46.1782 64.6483 40.627 68.1018 41.4513 75.3094C41.8865 79.0944 44.6234 81.5067 48.529 82.8611C52.8269 84.3465 58.4907 84.5627 64.4376 83.7444C73.4663 82.5021 83.1442 78.864 89.7437 73.429C91.8354 71.7082 93.6127 69.8028 94.9407 67.732Z" fill="url(#paint0_linear_254_4203)"/>
<path fill-rule="evenodd" clip-rule="evenodd" d="M127.516 121.264C144.382 122.657 163.025 131.971 176.301 142.606C176.912 143.095 177.805 142.996 178.294 142.385C178.783 141.775 178.687 140.881 178.077 140.392C164.387 129.423 145.137 119.874 127.75 118.437C126.972 118.372 126.286 118.954 126.222 119.735C126.157 120.513 126.738 121.199 127.516 121.264Z" fill="#FBFBFB"/>
<path fill-rule="evenodd" clip-rule="evenodd" d="M178.359 140.184C170.333 128.604 167.735 109.993 170.07 96.0557C170.2 95.2826 169.679 94.5483 168.907 94.4219C168.133 94.2919 167.403 94.812 167.273 95.5851C164.827 110.186 167.62 129.668 176.028 141.8C176.473 142.443 177.36 142.603 178.004 142.159C178.647 141.711 178.807 140.827 178.359 140.184Z" fill="#FBFBFB"/>
</g>
<defs>
<linearGradient id="paint0_linear_254_4203" x1="173.528" y1="82.8982" x2="-27" y2="66.5124" gradientUnits="userSpaceOnUse">
<stop stop-color="#FBFBFB"/>
<stop offset="1" stop-color="#FBFBFB" stop-opacity="0"/>
</linearGradient>
<clipPath id="clip0_254_4203">
<rect width="166.822" height="166.822" fill="white" transform="translate(166.289) rotate(85.0023)"/>
</clipPath>
</defs>
</svg>
