<svg width="626" height="610" viewBox="0 0 626 610" fill="none" xmlns="http://www.w3.org/2000/svg">
<path d="M182.302 491.454C180.708 491.684 178.833 491.805 178.453 493.655C178.159 495.088 178.27 496.563 179.152 497.806C180.659 499.931 182.897 501.171 185.593 500.733C188.004 500.341 191.315 498.213 191.315 495.57C191.315 494.08 190.213 492.58 189.302 491.464C188.325 490.269 187.48 489.012 186.25 488.035C184.592 486.716 183.251 486.587 181.76 488.141C180.944 488.992 180.172 490.153 179.814 491.266C179.638 491.815 179.767 492.255 179.767 492.806C179.767 493.54 179.628 492.458 179.767 492.095" stroke="#00ADB5" stroke-linecap="round" stroke-linejoin="round"/>
<path d="M190.564 495.654C191.92 496.827 193.07 497.888 195.469 497.946C197.148 497.986 198.827 497.577 200.401 497.138C201.528 496.823 205.14 495.156 202.213 495.021" stroke="#00ADB5" stroke-linecap="round" stroke-linejoin="round"/>
<path d="M204.553 485.418C202.763 487.344 200.292 491.117 201.22 494.01C201.546 495.028 202.02 495.712 202.633 496.581C203.868 498.33 205.78 497.785 207.515 497.328C208.773 496.997 210.268 495.954 210.749 494.767C211.414 493.13 210.029 490.57 208.871 489.442C207.579 488.183 206.556 486.652 205.116 485.55C204.733 485.257 204.442 484.939 203.943 485.047C203.381 485.168 203.15 485.692 203.896 485.692" stroke="#00ADB5" stroke-linecap="round" stroke-linejoin="round"/>
<path d="M331.106 221.509C329.512 221.739 327.636 221.86 327.257 223.709C326.963 225.142 327.074 226.617 327.956 227.861C329.462 229.985 331.701 231.225 334.397 230.787C336.808 230.396 340.119 228.268 340.119 225.625C340.119 224.134 339.017 222.634 338.105 221.519C337.128 220.324 336.284 219.067 335.054 218.089C333.395 216.771 332.055 216.641 330.563 218.196C329.747 219.047 328.975 220.207 328.618 221.321C328.442 221.87 328.571 222.31 328.571 222.861C328.571 223.594 328.431 222.512 328.571 222.149" stroke="#00ADB5" stroke-linecap="round" stroke-linejoin="round"/>
<path d="M339.368 225.708C340.724 226.882 341.874 227.943 344.273 228C345.952 228.04 347.631 227.632 349.205 227.192C350.331 226.878 353.944 225.211 351.017 225.076" stroke="#00ADB5" stroke-linecap="round" stroke-linejoin="round"/>
<path d="M353.357 215.472C351.567 217.398 349.096 221.172 350.024 224.065C350.35 225.082 350.824 225.767 351.437 226.636C352.671 228.385 354.584 227.84 356.319 227.383C357.577 227.052 359.071 226.009 359.553 224.822C360.217 223.184 358.832 220.624 357.675 219.497C356.383 218.238 355.359 216.707 353.92 215.605C353.537 215.311 353.246 214.993 352.746 215.101C352.185 215.223 351.953 215.747 352.699 215.747" stroke="#00ADB5" stroke-linecap="round" stroke-linejoin="round"/>
<path d="M193.798 165.52C202.989 161.254 210.419 154.201 217.89 147.549C223.762 142.321 229.92 137.155 236.4 132.644C237.679 131.754 239.485 129.962 241.214 130.726C242.926 131.483 243.914 133.543 245.268 134.762C248.602 137.766 251.599 141.437 254.34 144.968C257.358 148.854 252.833 151.005 250.036 153.549C246.858 156.439 243.824 159.42 240.353 161.97C237.054 164.394 234.404 167.735 231.384 170.479C226.781 174.662 222.476 179.114 217.887 183.301C215.155 185.793 212.02 187.828 209.389 190.409C208.468 191.313 207.615 192.508 206.552 193.261C205.698 193.866 204.516 191.54 204.212 191.102C201.8 187.626 198.062 185.248 195.7 181.611C194.214 179.325 193.215 176.503 191.437 174.415C190.588 173.419 188.466 171.175 189.396 169.719C190.345 168.233 193.04 167.52 194.511 166.456C195.657 165.626 197.05 164.601 198.354 164.024C199.302 163.605 200.233 162.861 201.08 162.289C203.311 160.782 200.947 161.426 199.438 161.986" stroke="#00ADB5" stroke-linecap="round" stroke-linejoin="round"/>
<path d="M195.202 172.345C200.797 175.72 205.816 180.604 210.184 185.42C210.295 185.542 211.358 186.264 211.196 186.531C210.883 187.047 207.251 184.718 206.904 184.485" stroke="#00ADB5" stroke-linecap="round" stroke-linejoin="round"/>
<path d="M200.749 167.467C205.285 168.732 207.989 171.14 211.651 173.717C213.283 174.864 214.944 175.9 216.409 177.249C217.096 177.883 217.586 178.718 218.221 179.401C219.092 180.337 215.536 178.314 215.117 178.08" stroke="#00ADB5" stroke-linecap="round" stroke-linejoin="round"/>
<path d="M207.34 163.685C210.515 166.476 213.706 169.228 216.98 171.907C218.224 172.925 219.636 173.859 220.71 175.058C222.617 177.186 220.119 174.425 219.271 173.645" stroke="#00ADB5" stroke-linecap="round" stroke-linejoin="round"/>
<path d="M211.788 161.024C214.143 162.419 216.602 163.77 218.596 165.651C219.414 166.422 220.092 167.331 220.967 168.046C222.044 168.926 222.987 169.953 224.072 170.809C225.616 172.028 225.848 172.383 224.014 170.854" stroke="#00ADB5" stroke-linecap="round" stroke-linejoin="round"/>
<path d="M217.522 156.928C220.12 158.909 222.524 160.92 224.696 163.336C225.658 164.407 226.433 165.642 227.654 166.463C228.773 167.215 229.557 167.432 228.248 166.21" stroke="#00ADB5" stroke-linecap="round" stroke-linejoin="round"/>
<path d="M223.042 152.755C225.329 154.429 227.584 155.957 229.411 158.114C230.247 159.101 230.908 160.236 231.842 161.147C233.738 162.996 232.434 162.064 231.062 160.809" stroke="#00ADB5" stroke-linecap="round" stroke-linejoin="round"/>
<path d="M228.133 148.424C231.344 151.416 234.033 154.922 237.25 157.878C239.416 159.868 236.313 156.679 235.805 156.112" stroke="#00ADB5" stroke-linecap="round" stroke-linejoin="round"/>
<path d="M234.349 144.981C237.052 143.906 239.856 142.624 241.308 139.997C241.709 139.272 242.225 138.642 242.39 137.825C242.616 136.704 242.572 137.185 241.718 137.91" stroke="#00ADB5" stroke-linecap="round" stroke-linejoin="round"/>
<path d="M238.701 148.597C240.844 146.66 243.24 144.543 244.81 142.084C245.593 140.858 247.085 139.361 244.999 141.135" stroke="#00ADB5" stroke-linecap="round" stroke-linejoin="round"/>
<path d="M245.572 152.657C247.524 150.59 249.261 148.668 251.059 146.506C251.639 145.808 253.408 144.902 251.28 145.456" stroke="#00ADB5" stroke-linecap="round" stroke-linejoin="round"/>
<path d="M244.017 151.613C246.061 149.907 248.372 147.92 249.992 145.766C250.424 145.191 250.756 144.551 251.152 143.954C251.814 142.954 251.856 143.291 250.851 143.394" stroke="#00ADB5" stroke-linecap="round" stroke-linejoin="round"/>
<path d="M200.719 175.792C210.901 171.763 213.413 160.827 221.71 154.643C222.72 153.89 223.539 153.054 224.716 152.533C225.504 152.185 226.475 152.018 227.192 151.573C227.629 151.301 231.258 148.6 228.736 149.716" stroke="#00ADB5" stroke-linecap="round" stroke-linejoin="round"/>
<path d="M195.978 172.868C197.121 171.514 198.135 170.356 199.585 169.377C199.822 169.216 200.189 169.189 200.385 168.975C200.772 168.55 201.359 167.929 201.508 167.381C202.096 165.223 204.969 165.622 206.494 164.54C207.945 163.511 209.342 162.468 210.821 161.451C212.451 160.331 213.205 159.348 214.514 157.913C215.717 156.594 216.884 155.26 218.157 154.011C219.198 152.99 220.834 152.061 221.497 150.754C222.245 149.278 224.156 147.59 225.877 147.863C226.468 147.957 230.81 150.409 227.972 148.841" stroke="#00ADB5" stroke-linecap="round" stroke-linejoin="round"/>
<path d="M205.192 178.142C212.843 174.211 217.089 165.638 222.257 159.163C224.16 156.778 226.88 155.193 228.873 152.849C229.725 151.847 231.607 150.782 229.418 150.799" stroke="#00ADB5" stroke-linecap="round" stroke-linejoin="round"/>
<path d="M207.923 180.571C214.856 176.418 219.295 168.693 224.339 162.571C226.634 159.786 228.849 156.942 231.171 154.179C232.231 152.92 234.077 152.133 231.708 153.423" stroke="#00ADB5" stroke-linecap="round" stroke-linejoin="round"/>
<path d="M210.655 184.904C214.981 180.794 218.473 176.359 222.013 171.604C224.165 168.714 226.026 165.464 228.553 162.861C230.003 161.368 231.12 159.619 232.436 158.036C232.966 157.398 233.332 156.655 233.877 156.022C235.105 154.598 234.249 155.887 233.394 156.66" stroke="#00ADB5" stroke-linecap="round" stroke-linejoin="round"/>
<path d="M211.671 186.705C213.824 184.65 216.978 182.673 218.415 180.008C218.936 179.04 220.226 176.704 221.131 176.112C222.327 175.329 222.897 173.664 223.768 172.617C224.675 171.527 225.562 170.462 226.546 169.425C227.469 168.453 227.764 166.746 228.906 165.909C230.179 164.976 230.798 163.533 231.813 162.42C232.691 161.456 234.363 160.458 235.453 159.722C236.057 159.314 236.479 158.758 237.163 158.455C238.552 157.841 237.651 158.155 236.38 158.109" stroke="#00ADB5" stroke-linecap="round" stroke-linejoin="round"/>
<path d="M234.175 145.751C235.956 146.208 238.152 146.522 239.775 147.468C240.822 148.078 241.734 148.69 239.827 147.579" stroke="#00ADB5" stroke-linecap="round" stroke-linejoin="round"/>
<path d="M236.024 142.854C238.564 143.501 240.36 144.226 242.431 145.542C243.786 146.402 243.569 146.164 242.158 145.336" stroke="#00ADB5" stroke-linecap="round" stroke-linejoin="round"/>
<path d="M239.105 139.932C241.287 141.128 243.403 142.486 245.659 143.527C246.986 144.139 246.29 144.096 245.266 143.614" stroke="#00ADB5" stroke-linecap="round" stroke-linejoin="round"/>
<path d="M240.862 137.597C243.156 138.614 245.27 139.628 247.382 140.908C248.345 141.491 247.471 141.529 246.741 141.057" stroke="#00ADB5" stroke-linecap="round" stroke-linejoin="round"/>
<path d="M235.301 144.733C237.034 142.726 238.772 140.824 240.35 138.766C240.798 138.182 243.529 134.927 242.349 136.593" stroke="#00ADB5" stroke-linecap="round" stroke-linejoin="round"/>
<path d="M237.121 148.257C239.376 146.315 242.626 143.725 243.353 140.824C243.568 139.97 244.032 139.116 244.713 138.529C245.403 137.933 246.125 137.664 245.094 138.668" stroke="#00ADB5" stroke-linecap="round" stroke-linejoin="round"/>
<path d="M235.312 148.191C237.716 145.668 239.771 143.972 241.129 140.864C241.482 140.057 241.887 139.388 242.466 138.753C243.08 138.08 243.96 137.45 242.775 138.655" stroke="#00ADB5" stroke-linecap="round" stroke-linejoin="round"/>
<path d="M244.246 149.434C245.353 150.118 246.463 150.751 247.614 151.321C248.089 151.556 247.501 151.101 247.299 151.027" stroke="#00ADB5" stroke-linecap="round" stroke-linejoin="round"/>
<path d="M246.404 146.055C246.479 146.117 250.831 149.75 250.059 148.94" stroke="#00ADB5" stroke-linecap="round" stroke-linejoin="round"/>
<path d="M248.99 144.737C249.95 145.638 252.891 148.27 251.855 147.453" stroke="#00ADB5" stroke-linecap="round" stroke-linejoin="round"/>
<path d="M242.96 150.869C244.551 149.425 248.04 146.565 248.895 144.346C249.232 143.472 250.776 142.348 249.324 143.55" stroke="#00ADB5" stroke-linecap="round" stroke-linejoin="round"/>
<path d="M243.161 151.299C243.312 151.417 246.355 154.611 247.004 153.062C247.335 152.272 247.767 151.242 248.579 150.807C250.005 150.042 250.268 147.635 251.728 146.989C253.383 146.257 253.229 145.028 251.687 144.593C251.081 144.421 251.559 143.258 250.93 143.35C250.354 143.433 250.049 143.226 249.405 143.341" stroke="#00ADB5" stroke-linecap="round" stroke-linejoin="round"/>
<path d="M233.974 145.32C235.018 147.263 235.216 147.968 236.9 148.778C237.354 148.997 237.948 148.694 238.293 148.864C238.975 149.202 240.325 149.209 240.834 148.596C241.859 147.364 242.236 146.569 243.806 145.819C244.796 145.346 245.592 144.23 246.051 143.306C246.554 142.289 247.461 141.523 247.993 140.503C248.22 140.068 246.392 138.949 246.375 138.198C246.371 137.984 244.201 137.978 243.84 137.8C243.402 137.583 243.202 137.278 242.992 136.828C242.685 136.17 242.141 136.987 241.317 137.049" stroke="#00ADB5" stroke-linecap="round" stroke-linejoin="round"/>
<path d="M197.828 169.971C200.294 170.884 202.444 172.061 204.663 173.364C206.59 174.495 208.768 175.098 210.683 176.194C212.046 176.975 213.461 178.757 214.467 179.927C214.802 180.317 215.053 180.682 215.29 181.121C215.836 182.129 215.268 179.692 215.211 179.425" stroke="#00ADB5" stroke-linecap="round" stroke-linejoin="round"/>
<path d="M221.636 151.645C222.319 152.344 225.088 156.205 224.542 153.303" stroke="#00ADB5" stroke-linecap="round" stroke-linejoin="round"/>
<path d="M227.333 419.647C227.627 421.118 228.373 422.073 228.951 423.41C229.345 424.321 230.081 425.026 230.49 425.92C230.933 426.885 231.596 428.019 232.213 428.878C232.742 429.614 233.089 430.312 233.756 430.963C234.936 432.112 235.829 433.482 237.015 434.615C238.738 436.262 241.656 438.412 244.166 438.276C244.973 438.232 245.866 438.476 246.657 438.359C247.335 438.259 248.159 438.226 248.839 438.34C249.957 438.528 251.169 438.339 252.238 438.564C252.815 438.686 253.443 438.508 254.027 438.614C254.784 438.75 255.671 438.784 256.443 438.784C258.969 438.784 261.489 438.77 264.008 438.458C265.373 438.289 266.726 438.73 268.077 438.496C269.345 438.276 271.035 438.503 272.228 437.995C273.694 437.37 275.152 436.387 276.285 435.284C276.853 434.73 277.284 434.069 277.668 433.385C278.174 432.487 278.455 431.517 278.962 430.621C280.733 427.495 281.742 424.015 283.176 420.756C283.513 419.988 284.069 419.366 284.473 418.656C284.576 418.477 284.622 418.248 284.789 418.076C285.414 417.431 284.217 417.362 283.667 417.119" stroke="#00ADB5" stroke-linecap="round" stroke-linejoin="round"/>
<path d="M227.053 419.784C228.306 418.186 229.37 417.012 231.192 416.109C232.717 415.352 234.299 414.453 235.678 413.466C237.796 411.949 240.711 411.272 243.289 410.816C246.096 410.318 248.859 409.737 251.716 409.737C252.599 409.737 253.474 409.997 254.358 410.011C255.416 410.028 256.477 410.06 257.53 410.147C259.147 410.281 260.806 410.25 262.426 410.284C264.685 410.332 266.847 411.471 269.106 411.647C270.449 411.752 272.016 411.948 273.323 412.304C273.812 412.438 274.37 412.528 274.827 412.745C275.395 413.013 275.794 413.468 276.316 413.785C278.001 414.807 279.885 415.287 281.706 416.063C282.264 416.301 283.224 416.709 283.842 416.709C284.693 416.709 284.649 418.239 284.649 416.709" stroke="#00ADB5" stroke-linecap="round" stroke-linejoin="round"/>
<path d="M284.508 417.666C283.468 419.024 282.726 419.541 281.25 420.335C280.091 420.958 278.807 421.398 277.508 421.63C276.296 421.845 274.972 422.016 273.744 422.112C272.721 422.192 271.678 422.076 270.633 422.192C268.272 422.454 265.888 423.047 263.61 423.695C260.358 424.621 257.218 424.718 253.859 424.895C250.192 425.089 246.516 424.816 242.923 424.09C241.711 423.845 240.43 424.065 239.197 424.018C237.838 423.966 236.508 423.601 235.229 423.171C234.691 422.99 234.196 422.712 233.631 422.586C232.971 422.44 232.299 422.498 231.644 422.343C230.73 422.129 229.664 421.74 228.892 421.22C228.557 420.993 228.053 420.806 227.789 420.464C227.712 420.364 227.614 420.142 227.614 420.023C227.614 419.741 227.376 419.812 227.754 420.058" stroke="#00ADB5" stroke-linecap="round" stroke-linejoin="round"/>
<path d="M254.342 431.54C255.196 431.447 256.324 431.463 255.971 430.393C255.858 430.05 255.573 430.013 255.27 429.915C254.367 429.622 252.752 430.189 252.413 431.107C251.804 432.754 252.956 434.533 254.767 433.962C255.26 433.807 256.134 433.468 256.447 433.032C256.823 432.509 256.258 432.663 255.886 432.155" stroke="#00ADB5" stroke-linecap="round" stroke-linejoin="round"/>
<path d="M251.747 429.763C253.108 429.231 253.805 429.011 255.181 429.011C255.736 429.011 256.013 428.973 256.502 429.284C257.31 429.799 257.588 430.777 257.504 431.639C257.433 432.366 257.186 433.363 256.923 434.054C256.728 434.567 256.245 434.656 255.75 434.752C255.298 434.84 254.313 434.594 253.957 434.786C253.58 434.991 252.425 435.059 252.133 434.68C251.865 434.331 251.576 434.181 251.381 433.757C251.194 433.353 251.11 432.967 250.96 432.565C250.754 432.013 250.384 430.505 251.151 430.173C251.601 429.978 251.793 429.862 252.309 429.862C252.455 429.862 252.58 429.968 252.729 429.968C252.945 429.968 252.314 429.831 252.098 429.831" stroke="#00ADB5" stroke-linecap="round" stroke-linejoin="round"/>
<path d="M254.202 424.295C255.192 423.049 256.095 421.763 257.117 420.551C257.667 419.9 258.349 419.34 258.941 418.717C260.637 416.933 262.364 414.981 263.657 412.896C264.931 410.843 266.669 408.607 268.556 407.064C269.553 406.25 270.444 405.349 271.312 404.41C272.153 403.499 272.541 402.225 273.338 401.262C273.956 400.517 277.998 395.444 278.701 398.529C278.978 399.74 277.764 400.588 277.002 401.331C276.137 402.173 275.268 403.244 274.531 404.201C273.82 405.124 272.957 405.936 272.267 406.867C271.328 408.133 269.619 409.039 268.934 410.474C268.369 411.657 267.432 412.609 266.728 413.705C265.753 415.225 264.611 416.495 263.462 417.886C262.552 418.988 261.126 419.894 260.481 421.151C259.942 422.201 258.987 422.644 258.115 423.323C257.736 423.619 257.274 423.783 256.938 424.193C256.826 424.329 256.626 424.486 256.521 424.333C256.461 424.246 256.233 424.442 256.276 424.538C256.425 424.878 256.061 423.72 256.026 423.612" stroke="#00ADB5" stroke-linecap="round" stroke-linejoin="round"/>
<path d="M253.641 424.637C253.909 424.77 255.605 426.024 255.605 425.013C255.605 424.707 256.008 424.197 256.151 423.885C256.258 423.649 255.289 423.875 255.145 424.056C254.957 424.292 254.591 424.484 255.184 424.5C255.639 424.513 255.995 424.322 256.342 424.06C256.441 423.984 257.779 424.191 256.587 424.158C255.953 424.141 255.337 424.158 254.728 424.158C254.202 424.158 255.268 424.022 255.422 424.022C255.544 424.022 254.532 424.608 254.358 424.417C254.315 424.37 254.241 424.242 254.412 424.158" stroke="#00ADB5" stroke-linecap="round" stroke-linejoin="round"/>
<path d="M231.332 419.579C231.411 419.62 233.918 420.899 233.928 420.741C233.939 420.55 233.799 420.383 233.897 420.194C234.321 419.368 234.87 419.764 235.6 420.084C236.169 420.334 235.305 417.569 237.022 418.736C237.91 419.339 238.146 419.243 238 418.231C237.89 417.465 238.162 417.463 238.838 417.544C239.298 417.599 239.628 417.697 239.891 417.271C240.209 416.753 240.568 416.459 241.22 416.682C241.76 416.867 242.239 417.388 242.611 416.724C242.775 416.432 242.637 415.558 243.153 415.725C243.476 415.83 243.903 416.242 244.271 416.113C244.551 416.015 244.766 415.17 245.082 415.304C245.412 415.443 245.749 416.054 246.166 415.908C246.367 415.837 246.74 415.196 246.345 415.273" stroke="#00ADB5" stroke-linecap="round" stroke-linejoin="round"/>
<path d="M241.225 418.349C242.094 419.038 245.351 422.72 246.307 419.97C246.478 419.478 246.505 418.502 246.985 419.31C247.38 419.975 247.976 420.437 248.622 419.807C249.05 419.39 249.241 418.681 249.853 418.463C250.416 418.262 250.828 419.292 251.296 418.691C251.672 418.206 251.49 417.372 250.937 417.081C250.756 416.985 250.705 417.314 250.625 417.392" stroke="#00ADB5" stroke-linecap="round" stroke-linejoin="round"/>
<path d="M248.73 414.112C250.085 413.885 251.792 413.423 252.822 414.605C253.3 415.153 253.255 415.853 252.939 416.473C252.708 416.927 252.088 417.153 251.692 416.709C251.367 416.344 252.037 415.743 252.277 415.52C253.098 414.757 254.315 415.979 254.572 416.807C254.787 417.5 252.845 419.103 253.079 418.417" stroke="#00ADB5" stroke-linecap="round" stroke-linejoin="round"/>
<path d="M271.529 416.435C271.932 416.301 274.52 415.488 274.024 416.83C273.769 417.519 272.793 417.888 272.153 418.114C271.85 418.22 271.068 418.202 271.576 417.772C272.016 417.4 272.635 417.225 273.213 417.271C275.464 417.449 272.316 419.968 271.669 420.316C270.413 420.991 268.705 421.701 267.39 420.878" stroke="#00ADB5" stroke-linecap="round" stroke-linejoin="round"/>
<path d="M257.71 412.403C258.244 413.249 258.887 414.1 259.343 414.989C259.5 415.295 258.82 414.511 258.661 414.206C258.619 414.126 258.326 413.228 258.298 413.234C257.957 413.308 257.876 414.833 257.784 415.114C257.347 416.445 256.267 415.935 255.208 415.835C253.925 415.715 253.352 416.947 252.643 417.734C252.076 418.363 251.853 418.556 252.238 419.306C252.549 419.912 252.678 420.5 252.238 421.049C251.894 421.477 251.464 421.747 251.049 422.1C250.669 422.424 251.214 422.371 251.143 422.176C250.948 421.646 249.747 421.756 249.354 421.781C247.894 421.876 246.407 421.519 244.973 421.607C244.212 421.654 243.495 422.067 242.74 422.176C241.973 422.287 242.987 422.935 243.274 423.122C243.768 423.443 242.306 422.439 241.769 422.192C240.869 421.776 240.037 421.455 239.571 420.536C239.104 419.615 238.693 418.987 237.903 418.311C237.631 418.078 237.599 417.723 237.732 417.407C238.04 416.675 238.723 416.079 239.4 415.683" stroke="#00ADB5" stroke-linecap="round" stroke-linejoin="round"/>
<path d="M257.57 415.137C255.811 413.941 254.36 413.426 252.293 413.155C251.566 413.059 250.791 412.569 250.317 412.027C249.896 411.546 250.134 411.673 249.638 412.327C248.961 413.22 248.458 412.418 247.592 412.653C246.266 413.014 245.127 414.215 243.781 414.438C243.412 414.499 243.501 413.898 243.04 414.157C242.264 414.593 241.671 415.006 240.764 415.144C240.216 415.228 239.176 415.58 239.26 416.23" stroke="#00ADB5" stroke-linecap="round" stroke-linejoin="round"/>
<path d="M269.496 415.137C271.192 415.296 272.912 415.275 274.601 415.452C275.196 415.514 275.5 415.748 275.919 416.128C276.296 416.47 276.885 417.276 277.427 417.32C278.208 417.383 278.611 417.067 279.34 416.845C279.779 416.712 281.18 416.845 280.72 416.845" stroke="#00ADB5" stroke-linecap="round" stroke-linejoin="round"/>
<path d="M268.233 416.982C266.409 418.153 265.434 419.929 263.482 420.996C263.095 421.207 261.912 421.615 262.001 422.309C262.065 422.811 266.017 421.239 266.619 420.946" stroke="#00ADB5" stroke-linecap="round" stroke-linejoin="round"/>
<path d="M275.038 418.622C276.029 419.342 276.885 420.37 278.124 420.005C278.46 419.906 279.162 419.867 279.387 419.648" stroke="#00ADB5" stroke-linecap="round" stroke-linejoin="round"/>
<path d="M520.203 388.827C515.08 389.785 511.356 391.226 508.109 395.293C506.051 397.871 506.502 401.928 507.85 404.66C510.072 409.163 515.534 411.705 520.461 411.926C526.201 412.183 534.181 410.54 535.358 403.87C535.989 400.295 532.483 396.914 530.841 393.982C529.506 391.597 527.494 388.381 524.683 387.372C523.536 386.96 520.872 387.103 520.037 388.216C519.664 388.714 519.184 389.238 518.913 389.797C518.692 390.249 518.929 388.645 518.876 388.18" stroke="#00ADB5" stroke-linecap="round" stroke-linejoin="round"/>
<path d="M522.36 401.113C520.978 401.805 518.734 402.264 519.945 403.78C520.221 404.126 520.615 404.107 520.95 403.78C521.236 403.501 522.682 402.035 521.614 401.688C519.436 400.981 520.232 405.213 521.789 403.34C522.625 402.334 521.455 401.344 520.406 401.957C519.157 402.687 520.145 403.963 521.125 402.855C521.864 402.021 521.274 401.381 520.47 402.164C519.751 402.865 520.482 403.983 521.19 403.035C521.915 402.063 521.088 401.239 520.212 402.092C519.199 403.079 520.296 402.975 521.014 402.325C521.739 401.67 520.454 401.767 520.037 402.28C519.069 403.474 520.586 403.304 520.83 402.28C521.189 400.777 519.597 404.231 520.369 401.598" stroke="#00ADB5" stroke-linecap="round" stroke-linejoin="round"/>
<path d="M516.718 396.102C518.192 397.996 519.703 399.793 520.94 401.688C521.283 402.213 521.009 402.74 521.198 402.729C521.897 402.692 522.612 402.568 523.355 402.568C525.058 402.568 526.398 401.759 528.038 401.759C530.025 401.759 532.943 401.257 529.661 399.658" stroke="#00ADB5" stroke-linecap="round" stroke-linejoin="round"/>
<path d="M515.059 388.665C514.749 387.137 513.234 383.432 516.054 383.825C517.066 383.966 517.745 384.985 518.34 385.63C519.889 387.306 519.723 389.33 517.216 389.474C516.559 389.511 515.634 390.78 514.893 389.878C514.053 388.856 514.91 388.925 515.059 387.695C515.156 386.891 514.617 386.958 514.386 386.169C514.208 385.563 514.577 384.9 514.727 384.462" stroke="#00ADB5" stroke-linecap="round" stroke-linejoin="round"/>
<path d="M516.055 386.887C516.04 387.273 515.429 390.753 516.728 390.183C517.163 389.992 517.538 389.715 517.714 389.276C517.885 388.851 517.703 388.596 517.511 388.18C517.016 387.109 515.581 385.444 516.018 387.857C516.294 389.38 518.039 389.024 518.175 387.57C518.279 386.459 516.841 384.971 515.926 386.241C515.278 387.138 516.431 389.118 517.106 387.731C517.448 387.027 516.629 385.237 515.76 386.115C514.868 387.014 516.208 388.912 517.087 388.144C517.956 387.385 517.366 385.069 516.423 385.953C515.562 386.762 516.855 388.37 517.511 387.139C518.244 385.765 516.63 384.729 516.129 386.169C515.681 387.454 517.077 388.836 517.401 387.085C517.647 385.752 515.133 385.043 515.133 386.636C515.133 388.103 516.479 387.953 516.479 386.618C516.479 385.226 515.04 385.539 515.64 386.708C516.239 387.876 517.043 385.802 516.368 385.145C515.58 384.377 514.537 385.564 515.465 386.303C516.097 386.807 516.962 384.716 515.898 384.328C514.98 383.992 515.488 385.819 515.806 385.405C516.299 384.764 515.543 384.335 516.064 384.462C516.523 384.574 517.639 384.813 517.954 385.208C518.202 385.518 519.207 387.247 519.207 387.695C519.207 389.069 517.052 389.809 515.815 389.465C514.928 389.218 514.665 389.829 514.976 389.626C515.731 389.136 515.889 387.857 515.889 388.342" stroke="#00ADB5" stroke-linecap="round" stroke-linejoin="round"/>
<path d="M515.889 411.782C515.035 413.548 514.276 415.322 513.271 416.991C513.045 417.367 512.62 418.134 512.57 418.572C512.436 419.751 513.652 415.759 513.898 415.177" stroke="#00ADB5" stroke-linecap="round" stroke-linejoin="round"/>
<path d="M532.648 408.388C534.749 410.973 537.066 412.816 538.704 415.653C538.866 415.933 539.145 416.155 539.368 416.372C540.114 417.098 537.984 414.822 537.294 414.046" stroke="#00ADB5" stroke-linecap="round" stroke-linejoin="round"/>
<path d="M393.461 257.661C394.775 262.493 399.849 280.454 401.063 287.015C404.405 305.085 399.161 280.429 399.148 288.41" stroke="#00ADB5" stroke-width="2" stroke-linecap="round" stroke-linejoin="round"/>
<path d="M384.556 265.472C384.108 258.12 382.415 247.916 392.997 248.967C397.975 249.461 403.459 252.34 406.562 256.191C411.358 262.143 408.828 271.368 403.646 276.105C400.888 278.626 398.212 279.889 394.602 280.842C388.488 282.457 393.314 274.183 394.298 271.915" stroke="#00ADB5" stroke-width="2" stroke-linecap="round" stroke-linejoin="round"/>
<path d="M412.078 274.457C422.592 273.909 432.27 271.893 436.031 283.002C438.217 289.458 440.879 297.301 439.057 304.105C437.41 310.252 433.864 314.096 427.38 311.477C418.114 307.735 418.127 300.689 423.17 293.663C425.027 291.076 432.138 285.896 432.143 282.871" stroke="#00ADB5" stroke-width="2" stroke-linecap="round" stroke-linejoin="round"/>
<path d="M431.029 262.47C430.67 265.165 430.664 284.231 425.368 284.413C424.375 284.448 423.54 284.951 422.673 285.372C419.339 286.99 421.367 285.534 422.612 283.85C425.431 280.037 431.142 281.446 434.002 276.385C437.107 270.889 438.537 268.185 434.086 263.934C430.966 260.954 432.337 255.885 429.88 263.027" stroke="#00ADB5" stroke-width="2" stroke-linecap="round" stroke-linejoin="round"/>
<path d="M446.546 245.168C450.61 254.08 454.324 265.687 460.843 273.445C462.565 275.496 463.532 273.711 463.506 272.114C463.473 270.096 462.889 268.061 462.289 266.151" stroke="#00ADB5" stroke-width="2" stroke-linecap="round" stroke-linejoin="round"/>
<path d="M434.749 268.344C441.196 265.873 457.027 263.371 459.725 255.528" stroke="#00ADB5" stroke-width="2" stroke-linecap="round" stroke-linejoin="round"/>
<path d="M454.578 245.459C482.523 293.08 455.297 259.61 469.501 250.901C478.123 245.614 478.842 270.53 481.231 259.752" stroke="#00ADB5" stroke-width="2" stroke-linecap="round" stroke-linejoin="round"/>
<path d="M479.535 243.821C480.549 246.775 483.954 266.27 491.043 261.817C494.213 259.825 497.905 256.028 498.517 252.296C499.172 248.291 496.604 238.116 490.793 239.212C488.141 239.712 483.706 239.833 481.976 242.288C480.303 244.661 479.248 250.219 481.255 244.383" stroke="#00ADB5" stroke-width="2" stroke-linecap="round" stroke-linejoin="round"/>
<path d="M499.335 239.101C507.26 234.144 516.574 232.517 517.78 244.19C517.931 245.655 517.959 247.501 518.649 248.849C519.448 250.413 517.806 245.026 516.25 244.157" stroke="#00ADB5" stroke-width="2" stroke-linecap="round" stroke-linejoin="round"/>
<path d="M498.754 243.571C499.113 249.673 498.217 257.94 501.144 263.664C501.244 263.86 501.939 265.353 501.589 264.534C500.895 262.915 500.608 261.816 499.301 260.06" stroke="#00ADB5" stroke-width="2" stroke-linecap="round" stroke-linejoin="round"/>
<path d="M298.182 298.813C297.084 308.731 298.999 339.268 281.707 337.368C278.102 336.972 274.827 336.384 273.115 333.076C271.322 329.611 269.838 326.596 269.66 322.661C269.441 317.826 271.416 315.544 275.428 313.363C276.835 312.598 273.812 315.696 273.544 315.996C271.781 317.969 277.763 315.563 280.05 315.07" stroke="#00ADB5" stroke-width="2" stroke-linecap="round" stroke-linejoin="round"/>
<path d="M320.38 303.579C311.634 304.375 299.289 305.991 297.879 316.65C297.113 322.432 305.937 323.135 309.767 325.104C316.347 328.488 321.34 339.522 313.959 344.378C308.826 347.755 304.944 345.961 299.951 346.298C294.879 346.64 298.41 344.819 301.417 344.32" stroke="#00ADB5" stroke-width="2" stroke-linecap="round" stroke-linejoin="round"/>
<path d="M367.772 41.1456C367.072 47.9886 366.645 54.9016 365.778 61.7283C365.695 62.3851 365.031 64.978 365.816 62.8817C366.39 61.349 366.205 59.7516 367.126 58.2981C368.396 56.2962 374.132 48.6703 376.826 49.4416C382.225 50.9877 376.775 60.7444 375.229 63.5402C374.696 64.5045 373.244 66.5961 373.996 67.6774C374.998 69.1189 376.853 63.7915 376.932 63.6286" stroke="#00ADB5" stroke-width="2" stroke-linecap="round" stroke-linejoin="round"/>
<path d="M389.097 45.6389C388.457 48.6962 383.082 63.7866 388.261 66.2861C389.722 66.9915 392.955 65.66 393.96 64.5122C395.006 63.3169 394.459 61.4866 394.346 60.0993" stroke="#00ADB5" stroke-width="2" stroke-linecap="round" stroke-linejoin="round"/>
<path d="M378.441 45.9687C384.124 47.6148 389.967 48.7109 395.612 50.4092C396.945 50.8102 397.445 50.9918 398.162 52.1499C399.278 53.9515 396.314 52.3058 395.802 51.7601" stroke="#00ADB5" stroke-width="2" stroke-linecap="round" stroke-linejoin="round"/>
<path d="M404.136 56.6649C402.832 60.5007 401.606 64.3848 400.118 68.1594C399.822 68.91 399.777 69.1844 399.618 68.6111C399.464 68.059 399.315 67.7336 399.566 67.1504C400.904 64.0513 404.026 59.5971 406.97 57.8661C410.149 55.9967 408.414 62.2757 407.987 63.5468C407.508 64.9743 406.216 68.8869 407.685 65.101C408.559 62.8479 410.566 57.2483 413.949 58.0633C415.998 58.5569 415.525 61.2557 415.163 62.6827C414.495 65.3143 413.831 67.9282 413.161 70.5685C412.182 74.4269 412.711 72.3433 413.426 69.5238" stroke="#00ADB5" stroke-width="2" stroke-linecap="round" stroke-linejoin="round"/>
<path d="M429.394 48.2663C427.353 55.4187 424.849 62.5507 423.09 69.7775C422.884 70.6251 422.434 73.7633 423.819 74.1371C425.135 74.4923 430.334 71.4491 429.064 70.3941" stroke="#00ADB5" stroke-width="2" stroke-linecap="round" stroke-linejoin="round"/>
<path d="M76.0298 340.016C71.2029 348.95 66.3916 357.892 61.5516 366.819C60.1722 369.363 57.4494 377.148 57.1123 374.289C56.6552 370.413 59.0861 364.986 60.1177 361.354C61.5734 356.228 64.5377 345.986 71.9241 346.024C77.4997 346.052 83.7679 354.018 84.6325 358.988C85.243 362.497 87.0183 358.534 89.4278 357.475" stroke="#00ADB5" stroke-width="2" stroke-linecap="round" stroke-linejoin="round"/>
<path d="M90.9919 368.637C94.2355 375.986 99.0171 388.411 108.863 381.575C113.388 378.434 111.139 373.059 106.673 371.352C95.7275 367.169 81.9354 378.851 79.2057 388.454C76.4765 398.054 87.2501 400.998 94.6613 401.947C98.7622 402.471 97.8425 399.056 101.371 397.867" stroke="#00ADB5" stroke-width="2" stroke-linecap="round" stroke-linejoin="round"/>
<path d="M118.252 394.048C109.749 390.589 98.4842 387.505 93.6925 398.091C91.3829 403.194 101.719 403.792 104.785 403.652C110.641 403.383 123.679 390.178 119.286 393.959C115.432 397.277 111.53 401.194 109.945 406.095C108.921 409.26 110.097 416.253 113.863 411.424" stroke="#00ADB5" stroke-width="2" stroke-linecap="round" stroke-linejoin="round"/>
<path d="M151.316 400.671C138.975 401.824 124.349 402.428 119.971 415.937C117.819 422.577 122.868 427.195 128.953 429.143C133.205 430.505 137.54 427.549 140.119 424.549" stroke="#00ADB5" stroke-width="2" stroke-linecap="round" stroke-linejoin="round"/>
<path d="M162.525 402.503C161.848 403.305 131.449 435.585 145.939 435.834C149.951 435.903 154.069 433.629 156.832 431.072" stroke="#00ADB5" stroke-width="2" stroke-linecap="round" stroke-linejoin="round"/>
<path d="M136.776 408.376C142.613 412.298 148.368 416.45 154.77 419.481C156.433 420.269 159.204 420.644 160.348 422.277C160.991 423.194 159.98 421.015 159.868 420.698" stroke="#00ADB5" stroke-width="2" stroke-linecap="round" stroke-linejoin="round"/>
<path d="M71.6716 149.929C76.5698 158.09 92.1249 181.899 85.81 174.721C81.7736 170.133 78.7076 164.044 76.1483 158.616C73.4627 152.92 70.941 142.757 81.1751 143.273C89.9588 143.715 93.4655 152.454 95.0106 159.618C95.6923 162.778 95.8662 165.232 97.3211 168.107C98.8088 171.046 98.8913 159.723 99.4568 156.785" stroke="#00ADB5" stroke-width="2" stroke-linecap="round" stroke-linejoin="round"/>
<path d="M103.317 133.331C103.59 134.566 107.824 162.787 113.97 157.359C116.557 155.074 117.126 149.441 117.458 146.355C118.497 136.71 114.314 135.518 107.364 133.477C104.048 132.503 103.369 132.547 102.458 135.873C100.588 142.702 103.536 140.783 107.312 136.986" stroke="#00ADB5" stroke-width="2" stroke-linecap="round" stroke-linejoin="round"/>
<path d="M130.039 125.37C126.624 130.976 122.27 137.571 124.672 144.438C125.669 147.286 127.986 146.533 129.61 144.93C132.171 142.399 133.507 138.24 133.364 134.765C133.091 128.104 128.808 122.403 124.314 117.67C123.691 117.014 118.014 112.455 119.126 116.369C121.123 123.399 126.679 130.161 130.551 136.272C136.933 146.342 138.89 142.432 141.757 132.978" stroke="#00ADB5" stroke-width="2" stroke-linecap="round" stroke-linejoin="round"/>
<path d="M142.363 127.113C144.482 129.038 161.204 140.675 161.723 130.353C161.77 129.417 160.545 129.124 160.141 128.326C159.1 126.27 157.376 124.914 156.437 123.835" stroke="#00ADB5" stroke-width="2" stroke-linecap="round" stroke-linejoin="round"/>
<path d="M143.758 134.107C137.137 125.637 127.888 116.83 137.369 108.456C141.364 104.927 149.652 107.718 149.436 113.613C149.335 116.359 148.74 123.148 144.692 123.865C142.552 124.244 141.566 122.879 143.545 120.971" stroke="#00ADB5" stroke-width="2" stroke-linecap="round" stroke-linejoin="round"/>
<path d="M158.873 98.9765C163.153 101.63 193.656 119.192 177.679 126.868C175.189 128.064 172.998 125.276 171.674 123.482C168.69 119.438 177.383 113.701 177.745 109.418" stroke="#00ADB5" stroke-width="2" stroke-linecap="round" stroke-linejoin="round"/>
<path d="M183.908 84.8584C181.417 86.8408 167.126 99.1534 178.364 101.534C184.571 102.849 190.438 96.8227 195.156 93.8148C202.756 88.9691 204.36 98.2935 202.272 103.556C200.993 106.779 190.316 117.327 193.238 108.942" stroke="#00ADB5" stroke-width="2" stroke-linecap="round" stroke-linejoin="round"/>
<path d="M268.256 543.139C258.749 547.8 246.291 556.3 256.569 567.578C261.499 572.988 270.601 570.772 277.093 570.147C278.918 569.971 283.951 571.681 282.581 570.494C279.617 567.927 277.484 568.093 276.595 563.759" stroke="#00ADB5" stroke-width="2" stroke-linecap="round" stroke-linejoin="round"/>
<path d="M296.478 540.014C296.478 546.842 296.412 551.73 303.604 554.386C306.71 555.533 308.66 556.586 309.484 559.975C310.415 563.808 307.672 569.358 304.424 571.501C300.409 574.151 295.365 575.075 290.848 573.271C286.979 571.727 291.255 569.901 293.271 568.133" stroke="#00ADB5" stroke-width="2" stroke-linecap="round" stroke-linejoin="round"/>
<path d="M327.906 532.516C326.645 537.278 320.958 550.013 326.017 554.942C328.059 556.931 332.015 555.826 334.534 556.4C337.04 556.97 339.189 558.839 340.734 560.774C343.179 563.836 340.851 568.479 338.026 570.633C333.642 573.975 327.38 572.508 322.276 572.508C319.49 572.508 321.393 572.316 322.775 570.633" stroke="#00ADB5" stroke-width="2" stroke-linecap="round" stroke-linejoin="round"/>
<path d="M316.849 473.255C321.79 471.418 330.955 468.495 335.734 465.201C340.779 461.724 335.497 460.725 332.812 461.556C328.264 462.963 325.517 467.604 323.975 471.693C319.917 482.457 332.827 494.623 343.68 493.39C353.71 492.25 355.109 487.465 356.615 480.129" stroke="#00ADB5" stroke-width="2" stroke-linecap="round" stroke-linejoin="round"/>
<path d="M363.028 467.631C361.905 469.414 351.23 490.826 348.276 480.753" stroke="#00ADB5" stroke-width="2" stroke-linecap="round" stroke-linejoin="round"/>
<path d="M343.146 468.256C347.649 474.121 358.53 495.091 369.443 494.501C371.026 494.415 368.927 488.479 368.802 487.627" stroke="#00ADB5" stroke-width="2" stroke-linecap="round" stroke-linejoin="round"/>
<path d="M372.649 468.256C375.137 482.455 380.12 525.37 377.281 511.233C375.818 503.944 362.45 464.501 374.217 466.138C379.32 466.849 392.347 474.102 388.933 480.753C387.014 484.493 375.119 485.799 380.346 483.253" stroke="#00ADB5" stroke-width="2" stroke-linecap="round" stroke-linejoin="round"/>
<path d="M397.023 478.254C398.608 486.288 400.133 494.315 401.513 502.381C401.749 503.762 401.432 502.624 401.014 501.86C398.391 497.068 394.798 488.526 394.921 483.149C395.037 478.055 402.232 474.58 406.003 478.254" stroke="#00ADB5" stroke-width="2" stroke-linecap="round" stroke-linejoin="round"/>
<path d="M417.548 487.627C417.381 493.508 421.76 514.095 432.157 508.109C433.647 507.252 437.322 505.156 437.431 503.249C437.489 502.232 435.59 501.999 434.865 501.999C432.959 501.999 432.483 499.696 431.658 498.25" stroke="#00ADB5" stroke-width="2" stroke-linecap="round" stroke-linejoin="round"/>
<path d="M414.341 489.502C419.959 483.84 426.278 476.039 431.267 486.134C432.728 489.09 432.219 492.651 431.018 495.612C429.077 500.394 422.126 502.28 423.962 495.126" stroke="#00ADB5" stroke-width="2" stroke-linecap="round" stroke-linejoin="round"/>
<path d="M448.976 478.254C453.372 485.097 471.15 503.546 459.487 511.962C455.756 514.655 453.32 514.643 449.118 514.497C443.186 514.29 446.321 512.825 448.334 508.248" stroke="#00ADB5" stroke-width="2" stroke-linecap="round" stroke-linejoin="round"/>
<path d="M475.914 475.754C474.587 477.319 457.436 493.473 467.861 495.195C471.704 495.83 475.235 493.562 478.765 495.855C485.133 499.991 483.625 505.597 477.767 509.116C474.84 510.874 471.574 511.796 468.503 513.247C466.767 514.067 468.617 511.692 468.859 510.747" stroke="#00ADB5" stroke-width="2" stroke-linecap="round" stroke-linejoin="round"/>
<path d="M461.162 468.881C459.673 469.947 443.637 478.616 445.911 483.878C448.78 490.516 449.728 482.345 450.259 479.504" stroke="#00ADB5" stroke-width="2" stroke-linecap="round" stroke-linejoin="round"/>
<path d="M66.9487 264.475C69.8053 257.912 68.6354 252.194 68.6354 245.393C68.6354 244.07 68.389 240.041 69.816 239.319C72.0666 238.182 74.1696 237.423 76.825 237.423C78.5903 237.423 80.364 237.472 82.1285 237.423C83.8933 237.373 85.6028 236.674 87.3477 236.466C90.5943 236.078 93.9711 236.618 97.1771 236.618C99.7226 236.618 102.356 236.94 104.804 236.94C105.239 236.94 107.011 237.142 107.297 237.387C108.171 238.138 107.921 239.342 108.609 239.999" stroke="#00ADB5" stroke-linecap="round" stroke-linejoin="round"/>
<path d="M108.442 240.581C108.553 242.517 108.594 245.235 109.412 247.127C109.942 248.353 109.52 249.985 109.627 251.291C109.833 253.798 109.449 256.242 109.449 258.674C109.449 261.937 109.617 265.157 109.617 268.402C109.617 271.187 106.824 270.721 104.615 270.33C102.707 269.992 100.146 270.67 98.1572 270.694C94.3202 270.74 90.4653 271.021 86.6223 271.021C83.4128 271.021 81.0294 270.113 78.0738 269.021C76.4955 268.437 75.5415 268.566 73.8462 268.566C72.2406 268.566 70.9202 268.321 69.3106 268.811C68.369 269.098 66.6826 268.851 66.1469 267.911C65.5047 266.785 66.7815 266.297 66.7815 265.375C66.7815 264.601 66.6817 262.387 66.9495 264.475" stroke="#00ADB5" stroke-linecap="round" stroke-linejoin="round"/>
<path d="M86.0998 244.836C86.0998 244.836 86.7717 245.163 87.4437 245.818C88.1156 246.309 89.53 246.063 90.7193 246.063C91.3451 246.063 92.006 245.588 92.5672 245.345C93.7039 244.853 93.0259 245.778 92.7538 246.309C92.4526 246.895 92.7966 247.987 93.3418 248.354C94.2412 248.961 95.1311 248.437 96.0108 248.009C96.3761 247.831 96.2758 247.748 96.3888 247.991C96.5421 248.319 96.5148 248.796 96.5148 249.154C96.5148 249.97 96.4598 251.326 96.0108 252.037C95.4202 252.972 94.8235 253.577 93.8737 254.264C92.9355 254.943 91.6958 256.128 90.4487 256.128C88.0116 256.128 85.4248 255.611 84.2053 253.3C83.6884 252.321 82.7401 251.519 82.7401 250.4C82.7401 249.466 82.4229 248.347 82.7401 247.454C83.1246 246.372 84.084 245.345 83.748 245.345C83.9193 245.393 85.4278 244.508 86.0998 244.836Z" stroke="#00ADB5" stroke-linecap="round" stroke-linejoin="round"/>
<path d="M88.8712 244.263C89.8162 243.922 91.9748 243.208 92.4828 242.094C92.8755 241.234 91.5777 241.072 90.887 241.072C90.0493 241.072 89.0567 242.199 88.8338 242.913C88.7099 243.309 88.5922 243.715 88.4699 244.117C88.4109 244.311 88.4896 244.452 88.5305 244.631C88.5617 244.768 89.8433 244.112 89.7951 243.924" stroke="#00ADB5" stroke-linecap="round" stroke-linejoin="round"/>
<path d="M107.184 262.642L67.4454 263.492C64.1824 263.562 61.5737 266.227 61.5737 269.491V271.567C61.5737 274.881 64.26 277.567 67.5737 277.567H107.313C110.627 277.567 113.313 274.881 113.313 271.567V268.64C113.313 265.276 110.548 262.57 107.184 262.642Z" stroke="#00ADB5"/>
<path d="M76.7988 263.269C77.3567 264.111 77.8384 265.123 78.4785 265.902C78.8005 266.295 78.7488 266.215 79.3731 265.99C80.4151 265.614 81.5957 265.883 82.6828 265.883C83.6372 265.883 84.7469 265.398 85.6745 265.641C86.7491 265.923 88.0159 265.385 89.0737 265.36C90.3482 265.331 91.5631 265.447 92.8307 265.447C93.5949 265.447 94.3398 265.012 95.0471 265.012C95.4574 265.012 96.6271 265.329 96.6572 264.595C96.6719 264.238 96.8361 263.891 96.8361 263.53C96.8361 263.042 96.5361 263.253 96.0311 263.007" stroke="#00ADB5" stroke-linecap="round" stroke-linejoin="round"/>
<path d="M258.779 84.3744C259.469 83.52 260.79 81.9391 258.938 81.6596C258.52 81.5963 258.128 81.3565 257.717 81.538C256.451 82.097 255.275 83.3278 255.275 84.7911C255.275 87.1285 257.906 87.6346 259.818 87.6043C263.042 87.5533 264.023 84.4922 265.162 82.0127C266.313 79.5079 267.591 77.0438 268.785 74.5571C270.135 71.7432 272.351 69.5017 273.752 66.7137C274.353 65.5181 275.138 64.4653 275.911 63.3737C277.111 61.6804 277.967 59.9721 278.826 58.0946C279.53 56.5542 280.311 55.1475 281.174 53.6895C281.523 53.0999 281.391 52.1967 282.059 52.827C282.565 53.3056 283.371 53.62 284.053 53.7416C287.033 54.2733 289.774 54.8361 292.843 54.5983C295.947 54.3579 299.049 53.9246 302.105 53.348C303.144 53.152 302.701 53.388 302.211 54.0021C301.38 55.0438 300.671 56.1477 299.875 57.2032C298.837 58.5796 298.472 60.2372 297.857 61.8108C297.182 63.5406 296.379 65.1928 295.734 66.951C294.487 70.3488 292.668 73.4476 290.418 76.2994C289.114 77.9521 287.503 80.8387 285.061 80.7218C281.283 80.541 283.834 73.2941 285.64 71.877C286.611 71.1142 287.674 71.9354 287.793 72.9594C287.956 74.3665 287.46 76.2946 286.058 76.9824C284.579 77.7081 283.445 77.621 284.584 75.7495C285.272 74.6171 285.682 75.8634 285.964 75.3096" stroke="#00ADB5" stroke-width="2" stroke-linecap="round" stroke-linejoin="round"/>
<path d="M543.558 336.823C544.248 335.969 545.569 334.388 543.717 334.109C543.298 334.045 542.907 333.805 542.496 333.987C541.23 334.546 540.054 335.777 540.054 337.24C540.054 339.577 542.685 340.084 544.596 340.053C547.821 340.002 548.802 336.941 549.941 334.462C551.092 331.957 552.37 329.493 553.564 327.006C554.914 324.192 557.13 321.951 558.531 319.163C559.132 317.967 559.916 316.914 560.69 315.823C561.89 314.129 562.746 312.421 563.604 310.544C564.309 309.003 565.09 307.596 565.952 306.139C566.301 305.549 566.17 304.646 566.837 305.276C567.344 305.755 568.15 306.069 568.831 306.191C571.812 306.722 574.552 307.285 577.622 307.047C580.726 306.807 583.828 306.374 586.884 305.797C587.923 305.601 587.48 305.837 586.99 306.451C586.159 307.493 585.45 308.597 584.654 309.652C583.616 311.029 583.25 312.686 582.636 314.26C581.961 315.99 581.157 317.642 580.512 319.4C579.266 322.798 577.447 325.897 575.197 328.748C573.893 330.401 572.282 333.288 569.84 333.171C566.061 332.99 568.613 325.743 570.418 324.326C571.39 323.563 572.453 324.384 572.572 325.408C572.735 326.815 572.239 328.744 570.837 329.431C569.358 330.157 568.224 330.07 569.362 328.198C570.051 327.066 570.461 328.312 570.743 327.759" stroke="#00ADB5" stroke-width="2" stroke-linecap="round" stroke-linejoin="round"/>
<path d="M513.107 189.57C509.946 183.987 510.132 182.393 510.853 176.773C511.25 173.679 511.402 170.656 512.206 167.611C513.643 162.167 514.109 154.837 509.61 150.453C500.757 141.828 484.271 154.094 489.262 165.037C491.162 169.201 494.445 172.285 496.817 176.213C497.768 177.788 498.301 179.496 499.537 180.968C500.723 182.38 502.195 184.137 502.195 185.89C502.195 187.371 501.742 189.291 502.817 190.6C504.302 192.408 503.774 191.478 505.972 191.478C507.484 191.478 509.712 190.308 510.931 189.358C511.801 188.68 512.268 190.641 512.268 188.752C512.268 187.131 511.732 188.48 512.827 188.48" stroke="#00ADB5" stroke-linecap="round" stroke-linejoin="round"/>
<path d="M506.112 194.749C509.104 193.88 517.386 191.939 515.469 194.34C513.157 197.237 512.167 195.785 509.329 196.4C507.878 196.714 506.463 201.078 508.07 201.17C510.366 201.302 511.888 198.293 514.226 198.293C516.354 198.293 516.201 201.021 514.925 201.988C513.24 203.265 511.303 201.892 510.169 203.881C508.377 207.023 513.272 206.512 514.661 205.774C516.061 205.03 517.392 203.869 518.423 203.199" stroke="#00ADB5" stroke-linecap="round" stroke-linejoin="round"/>
<path d="M513.107 188.684C513.069 188.921 513.03 190.524 512.373 190.524C512.019 190.524 511.857 190.315 511.534 190.49C511.154 190.695 510.797 191.18 510.434 191.463C510.114 191.712 509.163 191.682 508.98 191.993C508.682 192.501 508.077 192.78 507.512 192.841C506.779 192.92 506.508 193.279 505.728 193.11C505.489 193.058 505.465 192.909 505.242 192.909C504.897 192.909 504.748 193.07 504.488 192.788C504.2 192.476 503.729 192.33 503.59 191.857C503.402 191.213 502.71 190.874 503.734 191.274" stroke="#00ADB5" stroke-linecap="round" stroke-linejoin="round"/>
<path d="M499.606 161.698C500.858 161.704 501.892 161.783 502.319 163.076C502.609 163.955 502.614 164.82 502.614 165.733C502.614 166.622 502.055 167.336 502.055 168.172C502.055 169.277 502.962 169.096 503.729 169.432C504.455 169.75 504.98 170.016 505.373 170.727C505.763 171.432 505.468 172.793 505.416 173.559C505.371 174.218 505.049 175.618 505.517 176.175C505.771 176.478 507.16 176.945 506.252 176.281" stroke="#00ADB5" stroke-linecap="round" stroke-linejoin="round"/>
<path d="M489.044 174.032C488.042 174.681 487.021 175.224 485.901 175.634C485.431 175.805 484.812 176.112 484.917 175.395" stroke="#00ADB5" stroke-linecap="round" stroke-linejoin="round"/>
<path d="M485.407 164.628C483.631 165.044 481.867 165.514 480.107 165.976C479.814 166.053 480.486 165.331 480.511 165.309" stroke="#00ADB5" stroke-linecap="round" stroke-linejoin="round"/>
<path d="M484.917 155.701C483.078 155.44 481.244 155.117 479.414 154.8C478.572 154.653 478.215 154.761 478.692 154.065" stroke="#00ADB5" stroke-linecap="round" stroke-linejoin="round"/>
<path d="M494.851 146.228C493.397 145.979 492.138 145.74 490.825 145.1C490.21 144.8 489.618 144.441 488.975 144.199C488.211 143.912 488.195 143.999 489.045 143.502" stroke="#00ADB5" stroke-linecap="round" stroke-linejoin="round"/>
<path d="M507.511 140.095C507.723 141.541 507.653 142.408 507.053 143.718C506.729 144.425 506.455 145.318 506.295 146.08C506.24 146.343 506.209 146.493 506.027 146.69C505.959 146.764 506.209 145.886 506.252 145.751" stroke="#00ADB5" stroke-linecap="round" stroke-linejoin="round"/>
<path d="M518.213 145.887C517.749 147.394 517.087 148.838 516.69 150.347C516.489 151.111 516.615 151.157 516.954 150.385" stroke="#00ADB5" stroke-linecap="round" stroke-linejoin="round"/>
<path d="M522.69 156.723C521.101 158.063 519.798 159.726 518.563 161.372C518.409 161.578 518.23 161.651 518.058 161.819C517.668 162.199 518.341 161.34 518.424 161.221" stroke="#00ADB5" stroke-linecap="round" stroke-linejoin="round"/>
<path d="M166.528 293.421C168.854 303.627 171.473 313.857 173.011 324.217C173.87 330.005 171.984 321.653 171.749 320.473C171.241 317.917 170.659 315.652 170.659 313.039C170.659 307.779 170.514 302.46 170.114 297.193C169.834 293.507 165.186 282.531 171.061 291.688C177.051 301.025 181.28 311.349 185.346 321.535C185.906 322.938 186.682 324.268 187.296 325.615C187.632 326.35 181.344 320.363 178.92 319.075" stroke="#00ADB5" stroke-width="2" stroke-linecap="round" stroke-linejoin="round"/>
<path d="M162.914 316.057C169.627 313.447 184.428 308.525 188.731 301.19C190.533 298.117 190.182 299.538 185.116 300.463" stroke="#00ADB5" stroke-width="2" stroke-linecap="round" stroke-linejoin="round"/>
<path d="M183.051 281.851C188.231 291.842 191.983 302.48 193.406 313.57C193.538 314.597 193.783 315.725 194.525 316.448C194.663 316.582 192.04 311.8 191.312 310.524" stroke="#00ADB5" stroke-width="2" stroke-linecap="round" stroke-linejoin="round"/>
<path d="M183.051 281.348C187.068 283.692 201.822 292.351 192.201 297.864C191.357 298.348 190.367 298.795 189.763 299.569C188.485 301.208 188.33 301.689 189.247 299.457" stroke="#00ADB5" stroke-width="2" stroke-linecap="round" stroke-linejoin="round"/>
<path d="M196.476 276.317C198.187 287.612 201.123 300.021 201.123 311.53C201.123 314.07 200.687 309.365 200.09 308.008" stroke="#00ADB5" stroke-width="2" stroke-linecap="round" stroke-linejoin="round"/>
<path d="M208.351 296.439C211.186 304.672 212.644 309.523 204.335 311.921C201.496 312.74 204.927 308.723 205.655 308.232C208.14 306.556 210.615 301.159 207.835 298.451C206.729 297.373 204.081 298.734 203.303 297.445C202.155 295.544 204.727 291.945 206.286 291.017C210.769 288.348 210.205 292.109 208.351 290.905" stroke="#00ADB5" stroke-width="2" stroke-linecap="round" stroke-linejoin="round"/>
<path d="M363.452 143.676C365.164 152.449 372.21 178.068 368.11 170.08C367.669 169.219 367.301 168.49 367.263 167.513C367.126 163.9 366.849 160.123 365.57 156.694C364.499 153.826 364.723 150.853 364.723 147.801C364.723 147.19 363.656 142.379 363.758 142.346C364.836 141.996 369.283 147.261 370.087 148.168C374.152 152.758 378.262 158.032 381.168 163.41C382.663 166.178 383.113 167.17 379.544 167.605" stroke="#00ADB5" stroke-width="2" stroke-linecap="round" stroke-linejoin="round"/>
<path d="M363.029 161.416C367.002 159.452 370.788 157.882 374.886 156.465" stroke="#00ADB5" stroke-width="2" stroke-linecap="round" stroke-linejoin="round"/>
<path d="M374.463 144.088C378.532 150.027 382.407 156.346 387.144 161.829C387.819 162.611 389.237 164.031 389.237 162.195C389.237 159.69 387.813 157.102 387.167 154.723C386.134 150.919 385.172 147.098 384.297 143.263C383.453 139.561 384.047 140.943 385.473 143.722C387.836 148.325 390.323 152.518 393.613 156.603C395.83 159.355 396.06 157.822 396.06 155.411C396.06 151.031 393.865 147.429 392.249 143.492C390.522 139.287 390.638 133.546 388.673 129.717C387.909 128.228 387.803 132.947 387.591 134.599" stroke="#00ADB5" stroke-width="2" stroke-linecap="round" stroke-linejoin="round"/>
<path d="M397.331 129.236C397.439 129.72 399.015 141.732 401.801 140.375C403.021 139.781 403.32 137.962 404.577 137.35C406.613 136.358 408.813 138.114 409.611 139.825C411.722 144.348 409.293 149.588 405.471 152.34C400.176 156.152 401.989 149.289 401.989 147.389" stroke="#00ADB5" stroke-width="2" stroke-linecap="round" stroke-linejoin="round"/>
<path d="M399.872 128.411C399.109 130.44 397.724 139.859 397.307 136.204C397.05 133.947 397.507 132.231 397.754 130.061C398.341 124.913 402.385 129.054 400.718 126.348" stroke="#00ADB5" stroke-width="2" stroke-linecap="round" stroke-linejoin="round"/>
<path d="M371.629 399.4C371.488 399.148 365.379 388.898 365.908 388.603C366.641 388.195 368.009 388.592 368.872 388.277C371.421 387.345 373.474 385.423 375.573 383.833C377.78 382.16 380.803 395.281 381.475 398.044C382.288 401.388 384.404 405.832 380.444 407.762C376.874 409.501 372.177 408.976 368.279 408.891C361.921 408.754 357.526 398.585 356.784 393.525C356.244 389.84 351.006 378.013 356.63 375.647C358.135 375.014 360.692 375.446 362.325 375.446C364.662 375.446 366.702 374.09 369.078 374.09C372.859 374.09 374.002 378.691 370.702 373.638" stroke="#00ADB5" stroke-width="2" stroke-linecap="round" stroke-linejoin="round"/>
<path d="M382.299 377.254C382.958 379.593 385.078 392.583 390.649 389.256C391.71 388.623 392.481 387.088 392.866 385.992C393.892 383.067 394.108 380.624 391.809 378.384C390.087 376.706 386.76 373.28 384.258 373.186C378.052 372.954 383.527 379.726 382.763 378.61" stroke="#00ADB5" stroke-width="2" stroke-linecap="round" stroke-linejoin="round"/>
<path d="M383.227 356.464C387.81 363.522 394.724 371.284 397.505 379.413C397.86 380.45 397.872 381.155 398.536 382.125C399.538 383.589 400.011 385.713 400.959 383.481C402.331 380.25 405.459 377.381 407.918 374.894C410.951 371.825 411.366 372.734 405.959 372.734" stroke="#00ADB5" stroke-width="2" stroke-linecap="round" stroke-linejoin="round"/>
<path d="M415.237 354.204C414.661 355.471 405.922 372.32 414.361 368.491C416.04 367.729 417.753 366.544 417.531 364.599C417.317 362.724 415.71 361.251 414.876 359.627C414.405 358.71 412.523 354.289 413.175 355.56C415.113 359.335 417.715 366.059 420.598 368.868C423.956 372.139 425.968 368.701 422.66 366.859" stroke="#00ADB5" stroke-width="2" stroke-linecap="round" stroke-linejoin="round"/>
<path d="M420.34 356.012C433.253 375.967 416.913 353.576 420.675 349.659C424.315 345.868 428.616 353.148 429.979 355.459C432.353 359.485 434.689 369.93 431.01 359.175" stroke="#00ADB5" stroke-width="2" stroke-linecap="round" stroke-linejoin="round"/>
<path d="M436.577 338.837C436.358 339.591 429.432 358.58 434.618 356.815C436.822 356.065 439.035 354.368 440.211 352.421C441.568 350.174 442.199 347.092 441.216 344.612C440.546 342.922 439.82 341.115 438.896 339.54C436.701 335.797 442.618 347.364 444.386 351.316C446.975 357.103 453.214 377.391 438.51 373.362C432.096 371.605 438.136 361.887 437.505 361.887" stroke="#00ADB5" stroke-width="2" stroke-linecap="round" stroke-linejoin="round"/>
<path d="M253.992 245.456C256.297 244.839 258.263 244.217 259.883 242.441C260.523 241.74 260.609 240.846 260.936 239.997C261.361 238.894 260.832 237.485 260.47 236.426C260.181 235.58 261.763 235.105 262.329 235.07C263.299 235.009 264.042 235.61 264.975 235.664C266.096 235.728 267.293 236.078 268.071 236.931C268.598 237.509 269.305 237.646 269.889 238.147C270.443 238.623 270.88 239.454 271.281 240.064C272.44 241.828 272.768 243.887 273.105 245.905C273.267 246.873 273.364 247.926 273.197 248.904C272.997 250.071 273.21 251.193 272.737 252.312C272.41 253.085 271.887 254.109 271.143 254.565C270.379 255.034 269.67 255.202 269.474 256.174C269.067 258.204 270.113 260.191 269.71 262.239C269.353 264.057 266.885 264.336 265.361 264.627C264.308 264.828 262.394 265.142 261.379 264.604C259.49 263.604 258.121 262.352 256.719 260.759C255.477 259.347 255.007 257.283 254.843 255.479C254.676 253.637 254.674 251.636 254.717 249.773C254.745 248.536 255.114 247.295 255.234 246.062C255.333 245.053 255.661 244.972 255.131 246.264" stroke="#00ADB5" stroke-linecap="round" stroke-linejoin="round"/>
<path d="M267.352 236.275C268.13 234.318 268.987 232.363 269.584 230.344C269.852 229.438 269.917 228.477 270.251 227.592C270.64 226.563 270.833 225.4 270.999 224.324C271.119 223.553 271.177 222.187 271.903 221.701C272.432 221.346 272.734 220.535 273.301 220.109C274.029 219.562 275.063 219.052 275.579 218.321C276.086 217.603 276.627 216.119 276.2 215.288C275.964 214.827 275.996 214.33 275.763 213.876C275.46 213.285 275.187 212.806 274.958 212.166C274.757 211.606 274.125 210.49 274.86 210.092C276.657 209.119 276.782 210.651 277.34 212.049C277.628 212.771 277.671 213.652 277.938 214.403C278.121 214.916 278.444 214.545 278.692 214.84C279.065 215.284 279.083 215.84 279.365 216.32C279.787 217.039 279.291 218.497 279.077 219.201C278.681 220.504 278.273 221.682 277.685 222.934C276.171 226.156 273.704 228.869 272.012 231.992C271.368 233.181 270.853 234.378 270.539 235.692C270.361 236.439 269.837 237.15 269.837 237.94C269.837 238.66 269.654 239.029 270.044 237.889" stroke="#00ADB5" stroke-linecap="round" stroke-linejoin="round"/>
<path d="M275.43 211.959C274.111 212.156 272.672 212.231 271.494 212.805C271.332 212.884 271.584 212.679 271.701 212.665C273.28 212.484 275.005 211.112 276.442 210.445C277.512 209.949 278.974 208.831 280.194 208.831C280.547 208.831 279.02 209.789 278.847 209.941" stroke="#00ADB5" stroke-linecap="round" stroke-linejoin="round"/>
<path d="M274.083 214.179C275.551 213.348 278.107 212.446 279.181 211.051C279.285 210.915 279.362 210.732 279.514 210.647C280.048 210.35 279.105 210.681 278.95 210.748" stroke="#00ADB5" stroke-linecap="round" stroke-linejoin="round"/>
<path d="M275.119 215.49C276.88 214.833 280.099 214.25 281.068 212.363C281.208 212.09 280.897 212.161 280.711 212.161" stroke="#00ADB5" stroke-linecap="round" stroke-linejoin="round"/>
<path d="M276.983 215.289C276.871 217.602 276.895 219.955 275.539 221.936C274.877 222.903 274.419 223.546 274.187 224.677C273.938 225.887 273.666 226.897 273.099 228.001C272.54 229.091 271.884 229.982 271.333 231.028C271.047 231.57 270.344 232.093 270.481 232.744C270.551 233.072 270.383 233.367 270.274 233.674C269.951 234.585 269.346 235.388 268.778 236.174C268.393 236.708 268.398 237.666 268.905 236.679" stroke="#00ADB5" stroke-linecap="round" stroke-linejoin="round"/>
<path d="M268.594 233.954C269.529 234.152 270.95 234.761 271.908 234.761C271.925 234.761 271.094 233.783 270.976 233.652" stroke="#00ADB5" stroke-linecap="round" stroke-linejoin="round"/>
<path d="M269.215 229.817C270.537 230.367 271.861 230.912 273.174 231.482C273.481 231.616 273.464 231.636 273.358 231.533C273.13 231.311 272.937 231.071 272.736 230.826" stroke="#00ADB5" stroke-linecap="round" stroke-linejoin="round"/>
<path d="M270.458 227.093C272.05 227.575 273.64 228.094 275.251 228.517C275.431 228.564 275.684 228.659 275.51 228.483C275.162 228.134 274.763 227.824 274.393 227.497" stroke="#00ADB5" stroke-linecap="round" stroke-linejoin="round"/>
<path d="M271.287 223.663C273.1 224.526 274.905 225.457 276.764 226.224C277.07 226.351 277.173 226.444 277.11 226.208C277.024 225.888 276.898 225.585 276.776 225.277" stroke="#00ADB5" stroke-linecap="round" stroke-linejoin="round"/>
<path d="M273.565 221.241C273.73 221.319 278.744 223.968 278.329 222.957" stroke="#00ADB5" stroke-linecap="round" stroke-linejoin="round"/>
<path d="M274.601 219.627C276.114 219.974 277.643 220.289 279.157 220.535" stroke="#00ADB5" stroke-linecap="round" stroke-linejoin="round"/>
<path d="M276.258 218.013C276.949 218.045 277.639 218.079 278.33 218.114" stroke="#00ADB5" stroke-linecap="round" stroke-linejoin="round"/>
<path d="M262.588 248.281C261.868 248.56 257.436 249.634 257.41 250.826C257.4 251.292 257.41 251.759 257.467 252.222C257.645 253.659 258.672 254.411 259.93 255.098C261.529 255.97 263.25 255.997 264.993 255.501C266.649 255.029 267.726 253.244 267.064 251.712C266.927 251.394 267.403 251.33 267.093 250.961C266.792 250.602 266.594 250.81 266.109 250.905" stroke="#00ADB5" stroke-linecap="round" stroke-linejoin="round"/>
<path d="M260.413 252.015C261.237 249.984 262.265 247.954 262.743 245.81C262.869 245.248 263.023 244.776 263.336 244.268C263.996 243.196 264.578 242.052 264.97 240.86C265.342 239.729 265.366 238.614 265.856 237.508C266.031 237.113 267.075 235.931 266.627 236.477" stroke="#00ADB5" stroke-linecap="round" stroke-linejoin="round"/>
<path d="M268.594 237.486C268.209 239.823 267.632 242.059 267.224 244.369C266.998 245.649 266.626 246.72 266.626 248.068C266.626 249.033 266.979 249.837 266.752 250.804C266.491 251.918 266.256 251.369 265.797 250.602" stroke="#00ADB5" stroke-linecap="round" stroke-linejoin="round"/>
<path d="M267.558 237.486C266.838 238.945 265.28 241.343 265.28 243.186C265.28 244.234 265.349 245.346 265.274 246.409C265.184 247.673 264.171 249.312 263.565 250.4C263.364 250.762 263.102 251.04 262.978 251.432C262.824 251.921 262.934 251.95 262.587 251.409" stroke="#00ADB5" stroke-linecap="round" stroke-linejoin="round"/>
<path d="M260.103 249.896C261.866 251.125 264.98 253.633 267.145 251.465C267.482 251.127 267.97 250.406 268.157 249.974C268.413 249.385 267.585 249.885 267.041 249.997" stroke="#00ADB5" stroke-linecap="round" stroke-linejoin="round"/>
<path d="M262.173 248.08C263.179 248.048 265.213 248.313 266.189 247.822C266.222 247.806 266.114 247.833 266.086 247.856C265.989 247.931 265.789 247.808 265.694 247.777" stroke="#00ADB5" stroke-linecap="round" stroke-linejoin="round"/>
<path d="M263.312 244.347C264.05 244.537 266.721 245.645 266.833 244.447" stroke="#00ADB5" stroke-linecap="round" stroke-linejoin="round"/>
<path d="M264.555 241.32C265.469 241.902 269.184 244.596 268.594 241.723" stroke="#00ADB5" stroke-linecap="round" stroke-linejoin="round"/>
<path d="M265.591 239.907C266.523 240.143 267.455 240.378 268.387 240.613" stroke="#00ADB5" stroke-linecap="round" stroke-linejoin="round"/>
<path d="M270.148 239.907C271.3 240.965 273.601 243.426 273.669 245.277C273.724 246.787 273.669 248.246 273.669 249.773C273.669 250.883 273.887 252.068 273.773 253.125C273.623 254.511 271.438 254.528 271.96 256.157C272.135 256.701 271.983 257.022 272.472 257.413C272.895 257.749 273.202 258.14 273.358 258.674C273.724 259.92 272.996 261.045 272.116 261.903C271.565 262.439 270.85 263.518 270.2 263.87C269.878 264.044 269.222 263.92 268.853 263.92C268.512 263.92 267.822 264.137 267.513 264.274C267.058 264.475 266.479 264.119 265.902 264.324" stroke="#00ADB5" stroke-linecap="round" stroke-linejoin="round"/>
<path d="M253.992 245.759C254.409 247.11 254.72 248.234 255.419 249.391C255.706 249.867 255.666 250.299 255.539 250.854C255.392 251.501 254.908 253.015 255.286 253.679C255.868 254.7 255.856 255.779 255.856 256.908C255.856 257.996 257.602 258.469 258.175 259.027C259.025 259.856 258.656 260.914 260.056 261.275C260.362 261.354 260.841 261.358 261.08 261.549C261.262 261.694 261.474 262.056 261.713 262.099C262.206 262.186 262.867 262.091 263.312 262.284C263.685 262.445 263.957 262.677 264.296 262.861C264.671 263.064 265.183 262.836 265.591 263.035C266.984 263.713 266.361 263.068 265.384 262.306" stroke="#00ADB5" stroke-linecap="round" stroke-linejoin="round"/>
<path d="M150.93 195.084C148.163 198.533 136.28 212.338 146.405 215.462C149.547 216.431 153.636 214.202 157.023 214.524C161.812 214.979 164.504 218.946 165.682 223.064C167.039 227.807 159.553 236.24 163.152 238.79C169.315 243.157 178.192 235.773 183.285 241.637C186.171 244.96 183.136 249.789 184.924 241.949" stroke="#00ADB5" stroke-linecap="round" stroke-linejoin="round"/>
<path d="M289.911 141.345C292.578 144.788 298.926 152.544 301.313 156.967C303.345 160.731 300.784 160.58 298.605 159.084C295.999 157.296 296.365 153.491 297.109 150.857C299.619 141.962 315.869 133.785 317.704 147.455C318.349 152.256 313.943 160.33 307.941 158.425C300.017 155.909 300.522 144.127 306.516 139.748C312.646 135.269 322.693 140.416 322.693 147.732C322.693 155.856 312.782 158.371 308.939 151.204C305.445 144.69 311.636 137.876 318.274 136.901C320.716 136.542 327.023 139.29 322.622 140.72" stroke="#00ADB5" stroke-linecap="round" stroke-linejoin="round"/>
<path d="M423.961 203.207C419.808 207.228 406.682 216.602 417.726 220.252C424.151 222.376 430.1 218.894 434.081 214.143C438.475 208.899 439.22 200.607 432.228 197.202C426.791 194.553 422.105 190.298 417.548 196.959" stroke="#00ADB5" stroke-linecap="round" stroke-linejoin="round"/>
<path d="M565.71 258.196C557.778 262.798 545.736 268.358 558.013 272.707C559.9 273.376 561.128 272.94 562.788 271.804C568.925 267.603 569.286 265.92 568.916 259.446C568.672 255.159 562.237 256.138 559.296 257.571C554.957 259.684 551.931 263.914 550.174 268.194C547.809 273.953 560.033 273.601 561.719 266.667C562.775 262.319 557.672 256.144 554.164 261.459C549.518 268.501 556.608 274.799 561.077 267.43C565.358 260.373 555.356 257.462 552.668 265.695C549.133 276.518 570.146 264.766 562.503 261.043C557.947 258.823 550.254 272.917 558.654 269.409C568.854 265.15 557.443 258.874 557.443 268.819C557.443 276.889 571.144 265.177 562.217 262.015C560.176 261.292 558.162 267.645 559.616 269.062C562.145 271.526 566.54 265.145 566.315 262.848C565.351 252.987 555.443 278.057 567.242 266.562C569.937 263.937 569.826 259.191 565.353 261.98C562.713 263.626 561.043 270.612 566.03 268.992C570.819 267.437 570.819 258.795 565.674 260.8C562.534 262.023 561.397 266.354 558.013 265.695" stroke="#00ADB5" stroke-linecap="round" stroke-linejoin="round"/>
<path d="M496.439 322.558C495.116 323.982 473.981 349.387 484.609 336.444C487.039 333.484 489.273 330.573 492.591 328.494C494.636 327.213 496.606 326.422 498.363 324.71C500.284 322.84 497.561 322.962 497.116 326.863C496.729 330.259 497.026 345.087 496.439 345.054C492.477 344.827 489.88 341.027 486.212 339.777C484.248 339.107 478.423 340.072 480.048 338.805C484.02 335.709 496.188 326.83 492.591 330.334C489.865 332.99 484.265 342.968 486.177 339.707C487.537 337.389 491.214 329.835 490.667 331.098C489.539 333.7 487.576 338.157 487.745 341.027C487.904 343.75 493.456 337.049 493.802 336.375C496.376 331.36 491.051 342.637 492.947 339.95C494.655 337.53 500.429 331.378 496.297 337.416C495.392 338.738 500.577 332.641 499.646 333.945C499.376 334.323 497.026 338.164 498.399 336.826C503.316 332.035 496.071 337.017 495.156 335.68" stroke="#00ADB5" stroke-linecap="round" stroke-linejoin="round"/>
<path d="M453.466 426.287C455.711 423.172 468.541 409.43 457.991 408.825C456.208 408.723 452.532 408.159 451.043 409.346C447.502 412.168 449.037 419.781 453.822 420.629C460.167 421.753 466.114 413.299 459.239 410.04C452.055 406.636 435.1 420.31 442.42 425.94C456.831 437.024 469.863 404.813 451.221 409.45C434.312 413.656 449.208 430.624 456.887 419.691C465.108 407.986 439.758 407.885 444.237 420.976C446.446 427.432 453.696 424.316 454.998 419.101C456.907 411.456 449.102 414.613 448.976 419.9C448.841 425.566 457.801 415.314 452.433 415.768C448.553 416.097 448.17 421.288 445.128 421.288" stroke="#00ADB5" stroke-linecap="round" stroke-linejoin="round"/>
<path d="M198.191 367.549C199.486 373.274 202.039 390.596 202.039 384.733C202.039 380.686 198.866 376.908 198.227 372.86C198.003 371.446 198.464 367.262 197.229 366.299C196.384 365.641 204.371 371.697 206.493 372.86C210.367 374.983 213.143 378.948 216.506 374.735C218.121 372.712 222.871 372.433 223.526 371.923C228.275 368.222 227.84 362.698 228.942 357.864C229.335 356.14 228.336 363.75 228.336 365.987C228.336 368.849 228.867 372.638 229.655 375.325C230.774 379.142 230.326 368.371 229.263 366.299C227.536 362.934 227.695 359.947 227.695 356.301C227.695 354.862 238.417 372.906 236.532 374.284C235.744 374.859 225.245 372.038 222.065 373.034C219.326 373.892 216.824 374.893 214.226 376.158C213.515 376.504 212.344 377.764 212.8 377.408C214.429 376.139 219.411 372.669 217.433 373.312C214.715 374.194 212.046 376.756 209.593 378.172C204.971 380.841 203.475 380.468 201.54 385.046C201.262 385.705 204.712 385.621 205.389 385.809C210.243 387.16 213.293 383.477 217.575 381.782C223.102 379.595 229.457 375.103 235.392 374.423C239.872 373.909 233.06 372.379 232.826 371.923" stroke="#00ADB5" stroke-linecap="round" stroke-linejoin="round"/>
<path d="M443.203 126.973C455.291 123.198 474.868 118.856 485.677 110.24C487.639 108.677 490.676 107.178 489.989 104.165C487.407 92.8453 481.789 90.1905 470.711 91.3896C464.567 92.0547 458.67 97.5762 452.966 99.8254C447.094 102.141 441.219 105.183 435.862 108.504C430.441 111.865 433.582 113.53 433.582 119.335C433.582 122.527 435.539 126.973 439.034 126.973C440.626 126.973 445.193 125.723 440.673 125.723C437.126 125.723 431.62 126.247 428.451 124.612C426.031 123.364 430.808 120.906 431.943 120.759C435.997 120.232 427.297 124.095 426.42 124.369C424.614 124.932 432.934 118.789 428.308 120.238C423.294 121.808 430.736 117.597 432.299 116.836C434.064 115.976 432.524 117.337 432.94 116.628C433.606 115.492 437.461 111.321 433.974 114.718C432.806 115.856 436.609 112.778 437.893 111.767C440.313 109.864 437.243 112.752 436.646 113.225C433.895 115.407 433.25 113.647 431.016 114.614C430.082 115.018 427.809 116.36 427.809 114.788C427.809 112.076 437.632 110.84 439.426 110.761C450.412 110.274 458.1 105.553 468.217 103.089C473.086 101.903 478.407 100.195 482.969 98.0897C486.353 96.5282 493.131 91.6394 496.724 92.6394C498.135 93.0323 476.356 105.378 482.613 101.353C487.789 98.0229 493.725 95.6845 485.962 101.943C479.744 106.957 490.684 101.117 491.557 101.457C493.125 102.068 481.899 108.315 490.452 104.477C493.723 103.01 496.438 102.937 496.438 99.4783C496.438 94.7832 497.757 89.2183 491.628 91.3896C484.556 93.8951 478.879 99.2506 471.567 101.353C466.525 102.802 461.614 104.632 456.672 106.352C450.937 108.347 440.557 110.578 436.468 115.447C434.289 118.042 430.408 128.154 438.428 123.779C445.785 119.765 446.956 111.644 450.9 105.241C452.858 102.061 447.486 111.958 446.695 115.586C445.785 119.759 449.815 124.56 454.427 123.779C459.486 122.922 464.808 116.115 466.614 111.976C475.293 92.0793 459.549 111.377 464.012 115.725C468.749 120.339 475.966 108.116 476.912 105.102C478.05 101.471 478.719 96.9957 480.083 93.542C481.851 89.0626 470.56 94.1075 469.5 94.6181C463.628 97.4457 459.527 101.218 455.532 106.213C454.086 108.021 448.281 116.532 452.254 118.467C457.578 121.061 464.114 113 464.262 108.817C464.763 94.6459 452.787 101.908 445.555 107.463C441.085 110.895 444.968 117.754 445.768 116.975" stroke="#00ADB5" stroke-linecap="round" stroke-linejoin="round"/>
<path d="M280.931 465.654C280.652 465.871 270.098 474.739 270.098 472.215C270.098 470.737 271.266 469.155 272.308 468.188C274.366 466.279 282.497 464.809 280.539 469.473C279.225 472.602 273.857 477.212 272.343 471.313C271.715 468.863 276.03 463.948 278.65 466.036C281.54 468.339 275.328 471.274 273.377 470.237C269.891 468.384 274.077 461.79 277.439 463.155C280.955 464.582 276.119 468.484 274.517 469.265C270.771 471.089 271.295 468.139 269.386 466.279" stroke="#00ADB5" stroke-linecap="round" stroke-linejoin="round"/>
<path d="M107.113 465.029C110.81 470.965 117.852 477.124 110.676 482.526C108.825 483.919 97.907 489.49 98.561 483.012C99.3575 475.123 111.426 474.947 112.173 467.876C112.912 460.883 95.7694 463.518 91.862 458.781C89.4142 455.813 87.4402 449.236 88.0137 445.45C88.237 443.975 92.0754 441.113 91.6838 443.784C90.967 448.672 74.7872 461.195 84.3791 465.307C90.8101 468.064 92.4692 461.084 97.207 459.405C106.966 455.948 92.3609 481.59 92.3609 475.027" stroke="#00ADB5" stroke-linecap="round" stroke-linejoin="round"/>
<path d="M421.396 546.263C418.425 553.111 412.417 574.214 412.417 566.78C412.417 565.621 412.647 564.705 413.058 563.62C414.989 558.53 417.224 553.792 420.47 549.318C422.241 546.876 424.351 539.725 426.883 545.152C428.065 547.684 431.444 554.734 430.019 557.511C428.23 560.996 422.677 562.996 418.973 563.134C418.008 563.171 407.891 564.466 411.169 561.538C415.022 558.097 418.751 547.631 424.567 546.922C425.465 546.813 427.342 547.398 428.131 547.825C429.52 548.577 427.828 549.935 427.169 550.984C426.378 552.242 420.125 560.739 420.113 560.357C419.936 554.663 425.932 546.396 429.164 542.097C430.323 540.555 424.157 551.018 422.75 553.379C421.661 555.206 423.082 559.089 418.189 558.135" stroke="#00ADB5" stroke-linecap="round" stroke-linejoin="round"/>
<path d="M222.564 43.8645C219.702 54.7713 217.152 65.1631 216.114 76.2885C216.01 77.4013 215.288 78.1208 216.007 78.9963C217.077 80.2992 219.907 72.0149 220.996 69.7967C224.447 62.7661 228.336 59.9916 228.336 51.363C228.336 50.1179 228.336 42.9518 228.336 47.6832C228.336 51.7 229.118 55.67 228.835 59.6946C228.622 62.7366 225.624 70.946 227.837 68.79C231.253 65.4622 228.517 48.7769 223.169 48.3428C215.871 47.7502 212.352 63.1625 211.517 67.9568C210.547 73.5349 214.584 75.8702 219.036 71.5325C225.113 65.6119 226.431 53.4397 221.21 46.5028C214.036 36.9727 209.329 54.1684 208.738 58.3754C207.402 67.8922 212.858 70.9417 219.321 64.1729C221.698 61.6833 226.491 57.3785 225.486 53.5153C224.148 48.3766 216.352 53.3666 214.796 55.5982C212.589 58.7627 212.617 66.6449 216.185 68.8942C219.517 70.9942 222.759 62.2924 222.386 60.1112C220.803 50.8606 202.905 65.5456 211.803 70.8035C219.547 75.3797 224.68 54.9065 215.152 57.4381C212.499 58.1432 206.197 65.1102 211.66 65.1102" stroke="#00ADB5" stroke-linecap="round" stroke-linejoin="round"/>
<path d="M52.5944 221.953C49.7123 229.909 47.6373 234.987 40.3367 239.45C38.5037 240.57 36.0813 242.552 35.7044 244.796C34.8993 249.59 42.6604 254.872 47.0713 253.44C56.3653 250.422 42.3015 241.46 40.7999 238.86C38.1856 234.332 47.6345 226.198 51.9887 228.584C55.378 230.441 56.8804 236.914 54.875 240.075C51.9534 244.679 45.674 244.861 40.7643 244.136C36.8542 243.559 29.0222 244.344 31.3216 250.003C34.1988 257.085 47.7782 253.373 49.8151 247.365C51.7981 241.515 41.0623 239.311 43.3655 233.826C44.9476 230.058 49.9429 225.355 54.3761 225.355C59.6862 225.355 54.3832 235.019 53.5922 236.534C50.0989 243.223 44.7539 243.89 37.9849 245.699C25.2449 249.102 38.9696 249.581 39.7666 245.699" stroke="#00ADB5" stroke-linecap="round" stroke-linejoin="round"/>
<path d="M37.2013 307.561C35.8397 312.556 31.8142 321.08 32.2127 326.516C32.3994 329.062 33.1135 321.483 33.4242 318.948C34.0162 314.117 34.6934 308.662 37.3438 304.437C37.8142 303.687 48.6925 316.916 49.6728 319.086C52.2966 324.896 49.0117 323.79 44.898 325.682C42.6117 326.734 27.0103 332.1 27.0103 330.681C27.0103 329.196 29.9515 326.175 30.6448 324.919C32.8149 320.985 35.1432 316.047 36.061 311.657C38.0212 302.283 36.5599 321.575 36.5599 323.044C36.5599 323.936 36.9156 329.154 34.7782 329.154C32.1033 329.154 36.5867 324.249 37.4863 321.794C38.4404 319.192 42.2382 311.521 41.2991 308.776C39.969 304.889 39.3036 316.796 39.1611 320.892C39.0645 323.667 37.6858 328.301 39.9094 323.808C40.6179 322.376 42.9052 316.506 42.8669 316.934C42.5444 320.547 41.0496 324.271 41.0496 327.904C41.0496 331.622 43.0628 319.653 46.5371 318.114C47.401 317.732 46.1808 324.788 46.1808 325.821C46.1808 327.702 48.0337 318.594 48.0337 320.475C48.0337 320.999 47.2649 324.168 46.6797 323.183C44.281 319.146 42.4763 316.652 37.5576 315.198C35.3174 314.536 28.1969 314.99 30.5379 314.99C32.0767 314.99 34.4934 309.774 36.2036 311.137C38.4725 312.945 35.3586 318.719 34.6357 320.683C33.4521 323.9 32.7111 319.376 35.6334 319.711C38.6784 320.06 35.5718 331.014 37.2725 328.529C38.0619 327.375 40.4529 321.685 40.3726 322.35C38.82 335.207 39.1431 318.835 41.691 322.558" stroke="#00ADB5" stroke-linecap="round" stroke-linejoin="round"/>
<path d="M354.691 137.596C362.852 137.203 370.732 140.142 369.443 130.722C368.804 126.054 366.119 118.423 367.519 113.85C369.005 108.996 378.128 98.0476 370.334 94.6181C363.798 91.7423 355.255 99.8747 354.05 105.38C353.548 107.67 353.655 114.822 357.542 114.822C360.479 114.822 362.355 112.013 364.918 114.51C368.268 117.774 368.866 120.752 366.486 124.855C360.771 134.705 338.164 123.703 350.344 111.837C352.013 110.21 358.616 102.751 361.746 104.894C366.052 107.842 365.47 115.517 363.243 119.335C361.022 123.143 352.872 127.13 349.667 122.251C348.083 119.84 348.841 118.224 351.484 118.224" stroke="#00ADB5" stroke-linecap="round" stroke-linejoin="round"/>
<path d="M423.021 196.074C423.774 195.777 447.238 184.492 446.147 190.693C445.562 194.021 445.952 197.124 446.432 200.448C446.616 201.719 449.796 211.626 446.61 211.626C440.674 211.626 434.88 208.721 428.936 209.821C426.472 210.277 421.565 211.921 421.382 208.085C421.245 205.209 418.792 192.276 424.625 193.539C429.433 194.58 429.641 190.863 426.228 199.129C425.744 200.302 422.559 209.118 423.093 208.71C428.428 204.626 431.355 196.773 436.241 192.012C439.293 189.039 434.062 200.971 433.426 202.461C430.179 210.076 438.478 196.007 439.413 194.616C443.514 188.504 440.4 199.445 439.769 201.246C437.871 206.66 443.704 196.551 446.04 195.206C453.781 190.75 446.468 206.141 444.829 202.947" stroke="#00ADB5" stroke-linecap="round" stroke-linejoin="round"/>
<path d="M359.823 313.81C360.192 322.994 360.027 328.005 368.018 322.211C370.286 320.567 369.323 324.457 368.767 325.405C367.838 326.988 362.393 334.949 367.876 331.896C369.264 331.124 373.007 329.581 373.007 332.556C373.007 333.025 371.329 338.773 372.971 337.173C375.664 334.55 375.712 324.664 375.858 320.822C375.89 319.984 376.266 319.008 375.501 319.434C371.57 321.622 369.703 333.081 367.662 337.555C365.9 341.417 360.821 336.867 357.899 335.056C352.361 331.622 355.844 334.061 355.975 333.806" stroke="#00ADB5" stroke-linecap="round" stroke-linejoin="round"/>
<path d="M315.566 395.668C315.542 395.96 314.789 413.898 314.924 405.18C314.966 402.519 314.887 399.857 314.924 397.196C315.031 389.639 316.415 393.145 319.771 396.259C321.309 397.686 326.953 400.767 326.042 403.653C325.773 404.503 316.712 406.04 315.281 406.569C314.207 406.966 307.869 410.854 307.869 410.665C307.869 406.022 309.548 400.998 310.114 396.363C311.313 386.549 318.283 412.82 318.737 406.187C318.844 404.625 318.773 395.33 318.773 397.647C318.773 399.374 320.056 408.576 320.056 402.542C320.056 401.177 320.056 399.811 320.056 398.446C320.056 397.802 320.416 400.884 320.661 400.286C321.55 398.121 320.056 393.769 320.056 399.07C320.056 405.022 318.343 400.737 314.604 400.737C311.405 400.737 309.573 412.157 311.219 409.485C312.66 407.144 309.82 397.613 311.076 402.507C311.734 405.069 313.313 402.238 314.283 401.292" stroke="#00ADB5" stroke-linecap="round" stroke-linejoin="round"/>
</svg>
